<svg aria-hidden="true" style="position:absolute;width:0;height:0" xmlns="http://www.w3.org/2000/svg" overflow="hidden"><defs><symbol id="icon-done" viewBox="0 0 24 24"><path d="M9 16.219L19.594 5.578 21 6.984l-12 12-5.578-5.578L4.781 12z"/></symbol><symbol id="icon-clock" viewBox="0 0 32 32"><path d="M20.586 23.414L14 16.828V8h4v7.172l5.414 5.414zM16 0C7.163 0 0 7.163 0 16s7.163 16 16 16 16-7.163 16-16S24.837 0 16 0zm0 28C9.373 28 4 22.627 4 16S9.373 4 16 4s12 5.373 12 12-5.373 12-12 12z"/></symbol><symbol id="icon-bubbles3" viewBox="0 0 36 32"><path d="M34 28.161a3.65 3.65 0 0 0 2 3.256v.498a7.42 7.42 0 0 1-6.414-2.251c-.819.218-1.688.336-2.587.336-4.971 0-9-3.582-9-8s4.029-8 9-8 9 3.582 9 8c0 1.73-.618 3.331-1.667 4.64a3.635 3.635 0 0 0-.333 1.522zM7.209 6.912C5.14 8.593 4 10.755 4 13c0 1.259.35 2.481 1.039 3.63.711 1.185 1.781 2.268 3.093 3.133a3.996 3.996 0 0 1 1.755 2.747c.056.375.091.753.105 1.129.233-.194.461-.401.684-.624a4 4 0 0 1 3.333-1.14 16.05 16.05 0 0 0 1.987.126v4c-.848 0-1.68-.054-2.492-.158-3.437 3.437-7.539 4.053-11.505 4.144v-.841c2.142-1.049 4-2.961 4-5.145 0-.305-.024-.604-.068-.897C2.312 20.721-.001 17.08-.001 13.001c0-7.18 7.163-13 16-13 8.702 0 15.781 5.644 15.995 12.672a12.196 12.196 0 0 0-4.133-1.018c-.36-1.752-1.419-3.401-3.07-4.742-1.104-.897-2.404-1.606-3.863-2.108-1.553-.534-3.211-.804-4.928-.804s-3.375.271-4.928.804c-1.46.502-2.76 1.211-3.863 2.108z"/></symbol><symbol id="icon-spinner11" viewBox="0 0 32 32"><path d="M32 12H20l4.485-4.485C22.218 5.249 19.205 4 16 4S9.781 5.248 7.515 7.515C5.249 9.782 4 12.795 4 16s1.248 6.219 3.515 8.485C9.782 26.751 12.795 28 16 28s6.219-1.248 8.485-3.515c.189-.189.371-.384.546-.583l3.01 2.634A15.96 15.96 0 0 1 16 32C7.163 32 0 24.837 0 16S7.163 0 16 0c4.418 0 8.418 1.791 11.313 4.687L32 0v12z"/></symbol><symbol id="icon-search" viewBox="0 0 32 32"><path d="M31.008 27.231l-7.58-6.447c-.784-.705-1.622-1.029-2.299-.998a11.954 11.954 0 0 0 2.87-7.787c0-6.627-5.373-12-12-12s-12 5.373-12 12 5.373 12 12 12c2.972 0 5.691-1.081 7.787-2.87-.031.677.293 1.515.998 2.299l6.447 7.58c1.104 1.226 2.907 1.33 4.007.23s.997-2.903-.23-4.007zM12 20a8 8 0 1 1 0-16 8 8 0 0 1 0 16z"/></symbol><symbol id="icon-cog" viewBox="0 0 32 32"><path d="M29.181 19.07c-1.679-2.908-.669-6.634 2.255-8.328l-3.145-5.447a6.022 6.022 0 0 1-3.058.829c-3.361 0-6.085-2.742-6.085-6.125h-6.289a6.023 6.023 0 0 1-.811 3.07C10.369 5.977 6.637 6.966 3.709 5.28L.565 10.727a6.023 6.023 0 0 1 2.246 2.234c1.676 2.903.672 6.623-2.241 8.319l3.145 5.447a6.022 6.022 0 0 1 3.044-.82c3.35 0 6.067 2.725 6.084 6.092h6.289a6.032 6.032 0 0 1 .811-3.038c1.676-2.903 5.399-3.894 8.325-2.219l3.145-5.447a6.032 6.032 0 0 1-2.232-2.226zM16 22.479A6.48 6.48 0 1 1 16 9.52a6.48 6.48 0 0 1 0 12.959z"/></symbol><symbol id="icon-meter" viewBox="0 0 32 32"><path d="M16 2c8.837 0 16 7.163 16 16 0 6.025-3.331 11.271-8.25 14H8.251c-4.92-2.729-8.25-7.975-8.25-14 0-8.837 7.163-16 16-16zm9.06 25.06A12.728 12.728 0 0 0 28.813 18H26v-2h2.657a12.659 12.659 0 0 0-1.33-4H24v-2h2.009a12.973 12.973 0 0 0-.949-1.06A12.763 12.763 0 0 0 20 5.821v2.178h-2V5.341a13.012 13.012 0 0 0-4 0v2.658h-2V5.821A12.747 12.747 0 0 0 6.94 8.94c-.338.338-.654.692-.949 1.06H8v2H4.673a12.659 12.659 0 0 0-1.33 4H6v2H3.187a12.73 12.73 0 0 0 3.753 9.06c.335.335.685.648 1.049.94H14l1.143-16h1.714L18 28h6.011a13.07 13.07 0 0 0 1.049-.94z"/></symbol><symbol id="icon-switch" viewBox="0 0 32 32"><path d="M20 4.581V8.83a10 10 0 0 1 3.071 2.099C24.96 12.818 26 15.329 26 18s-1.04 5.182-2.929 7.071C21.182 26.96 18.671 28 16 28s-5.182-1.04-7.071-2.929C7.04 23.182 6 20.671 6 18s1.04-5.182 2.929-7.071A9.982 9.982 0 0 1 12 8.83V4.581C6.217 6.302 2 11.658 2 18c0 7.732 6.268 14 14 14s14-6.268 14-14c0-6.342-4.217-11.698-10-13.419zM14 0h4v16h-4z"/></symbol><symbol id="icon-menu" viewBox="0 0 32 32"><path d="M2 6h28v6H2zm0 8h28v6H2zm0 8h28v6H2z"/></symbol><symbol id="icon-command" viewBox="0 0 32 32"><path d="M23 28c-2.757 0-5-2.243-5-5v-3h-4v3c0 2.757-2.243 5-5 5s-5-2.243-5-5 2.243-5 5-5h3v-4H9c-2.757 0-5-2.243-5-5s2.243-5 5-5 5 2.243 5 5v3h4V9c0-2.757 2.243-5 5-5s5 2.243 5 5-2.243 5-5 5h-3v4h3c2.757 0 5 2.243 5 5s-2.243 5-5 5zm-3-8v3c0 1.654 1.346 3 3 3s3-1.346 3-3-1.346-3-3-3h-3zM9 20c-1.654 0-3 1.346-3 3s1.346 3 3 3 3-1.346 3-3v-3H9zm5-2h4v-4h-4v4zm6-6h3c1.654 0 3-1.346 3-3s-1.346-3-3-3-3 1.346-3 3v3zM9 6C7.346 6 6 7.346 6 9s1.346 3 3 3h3V9c0-1.654-1.346-3-3-3z"/></symbol><symbol id="icon-mail2" viewBox="0 0 32 32"><path d="M26.667 0H5.334C2.4 0 0 2.4 0 5.334v21.332C0 29.602 2.4 32 5.334 32h21.333C29.601 32 32 29.602 32 26.666V5.334C32 2.4 29.601 0 26.667 0zm0 4c.25 0 .486.073.688.198L16 13.586 4.645 4.199c.202-.125.439-.198.689-.198h21.333zM5.334 28a1.32 1.32 0 0 1-.178-.013l7.051-9.78-.914-.914L4 24.586V5.488L16 20 28 5.488v19.098l-7.293-7.293-.914.914 7.051 9.78a1.294 1.294 0 0 1-.177.013H5.334z"/></symbol></defs></svg>